<?xml version="1.0" encoding="utf-8"?>
<!-- Generator: Adobe Illustrator 23.0.0, SVG Export Plug-In . SVG Version: 6.00 Build 0)  -->
<svg version="1.1" id="Layer_1" xmlns="http://www.w3.org/2000/svg" xmlns:xlink="http://www.w3.org/1999/xlink" x="0px" y="0px"
	 viewBox="0 0 2500 709" style="enable-background:new 0 0 2500 709;" xml:space="preserve">
<style type="text/css">
	.st0{fill:#95BF47;}
	.st1{fill:#5E8E3E;}
	.st2{fill:#FFFFFF;}
</style>
<path class="st0" d="M559.3,146.2c-0.5-3-2.9-5.3-6-5.6c-2.5-0.2-51.1-0.9-51.1-0.9s-40.7-39.5-44.7-43.5c-4-4-11.9-2.8-14.9-1.9
	c0,0-7.6,2.4-20.4,6.3c-2.5-8.3-5.8-16.3-9.8-24c-14.5-27.6-35.7-42.2-61.3-42.3H351c-1.8,0-3.5,0.2-5.3,0.3
	c-0.8-0.9-1.5-1.8-2.3-2.7c-11.2-12-25.5-17.8-42.6-17.2c-33.1,0.9-66,24.8-92.7,67.3c-18.8,29.9-33.1,67.4-37.2,96.4l-65.1,20.2
	c-19.2,6-19.8,6.6-22.3,24.7c-1.9,13.7-52,401.6-52,401.6l420.4,72.7l182.2-45.3C634.1,652.3,559.7,149.7,559.3,146.2L559.3,146.2z
	 M401.1,107.2l-32.6,10.1c-0.3-16.7-2.2-40.1-10-60.2C383.5,61.8,395.9,90.2,401.1,107.2z M346.5,124.1l-70.2,21.7
	c6.8-26,19.6-51.8,35.5-68.8c5.9-6.3,14.1-13.3,23.8-17.4C344.7,78.8,346.7,105.8,346.5,124.1L346.5,124.1z M301.4,36.8
	c7.8-0.2,14.3,1.5,19.9,5.2c-8.9,4.6-17.6,11.3-25.7,20c-21,22.5-37.1,57.5-43.5,91.3c-20,6.2-39.6,12.3-57.7,17.8
	C205.8,118,250.3,38.2,301.4,36.8L301.4,36.8z"/>
<path class="st1" d="M553.3,140.7c-2.5-0.2-51.1-1-51.1-1s-40.7-39.5-44.7-43.5c-1.6-1.4-3.5-2.4-5.6-2.6l0,604l182.2-45.3
	c0,0-74.3-502.6-74.8-506.1C558.8,143.2,556.3,140.9,553.3,140.7L553.3,140.7z"/>
<path class="st2" d="M350.9,234.4l-21.2,79.2c0,0-23.6-10.7-51.6-9c-41,2.6-41.5,28.5-41.1,35c2.2,35.4,95.4,43.1,100.6,126.1
	c4.1,65.3-34.6,109.9-90.4,113.4c-67,4.2-103.8-35.3-103.8-35.3l14.2-60.4c0,0,37.1,28,66.8,26.1c19.4-1.2,26.3-17,25.6-28.2
	c-2.9-46.2-78.8-43.5-83.6-119.4c-4-63.9,37.9-128.6,130.5-134.4C332.6,225.3,350.9,234.4,350.9,234.4L350.9,234.4z"/>
<path class="st2" d="M874,400.1c-20.9-11.4-31.7-21-31.7-34.1c0-16.8,15-27.5,38.3-27.5c27.2,0,51.5,11.4,51.5,11.4l19.1-58.7
	c0,0-17.6-13.8-69.4-13.8c-72.1,0-122.1,41.3-122.1,99.4c0,32.9,23.3,58.1,54.5,76c25.1,14.4,34.1,24.5,34.1,39.5
	c0,15.6-12.6,28.1-35.9,28.1c-34.8,0-67.6-18-67.6-18l-20.4,58.7c0,0,30.3,20.4,81.4,20.4c74.2,0,127.5-36.5,127.5-102.4
	C933.3,443.8,906.4,418.7,874,400.1L874,400.1z M1169.7,276.8c-36.5,0-65.3,17.4-87.4,43.7l-1.2-0.6l31.7-165.8h-82.6l-80.2,422
	h82.6l27.5-144.3c10.8-54.5,38.9-88,65.2-88c18.6,0,25.7,12.6,25.7,30.5c0,11.4-1.2,25.2-3.6,36.5l-31.1,165.2h82.6l32.3-170.6
	c3.6-18,6-39.5,6-53.9C1237.4,305,1212.8,276.8,1169.7,276.8L1169.7,276.8z M1424.1,276.8c-99.4,0-165.2,89.8-165.2,189.7
	c0,64,39.5,115.5,113.7,115.5c97.6,0,163.4-87.4,163.4-189.7C1536,333.1,1501.3,276.8,1424.1,276.8L1424.1,276.8z M1383.4,518.7
	c-28.1,0-40.1-23.9-40.1-53.9c0-47.3,24.6-124.5,69.4-124.5c29.3,0,38.9,25.2,38.9,49.7C1451.6,440.8,1427.1,518.7,1383.4,518.7
	L1383.4,518.7z M1747.3,276.8c-55.8,0-87.4,49.1-87.4,49.1h-1.2l4.8-44.3h-73c-3.6,29.9-10.2,75.4-16.8,109.5l-57.5,302.3h82.6
	l22.7-122.1h1.8c0,0,16.9,10.8,48.5,10.8c97,0,160.4-99.3,160.4-199.9C1832.3,326.5,1807.8,276.8,1747.3,276.8L1747.3,276.8z
	 M1668.3,519.8c-21.4,0-34.1-12-34.1-12l13.8-77.2c9.6-51.5,36.5-85.6,65.3-85.6c25.1,0,32.9,23.3,32.9,45.5
	C1746.1,443.8,1714.4,519.8,1668.3,519.8L1668.3,519.8z M1950.2,158.3c-26.3,0-47.3,20.9-47.3,47.9c0,24.6,15.6,41.3,38.9,41.3h1.2
	c25.7,0,47.9-17.4,48.5-47.9C1991.5,175.7,1975.4,158.3,1950.2,158.3L1950.2,158.3z M1834.7,576.1h82.6l56.3-292.7h-83.2
	L1834.7,576.1z M2183.7,282.8h-57.5l3-13.8c4.8-28.1,21.6-53.3,49.1-53.3c8.9,0,17.8,1.4,26.3,4.2l16.2-64.6c0,0-14.4-7.2-44.9-7.2
	c-29.3,0-58.6,8.4-80.8,27.5c-28.1,23.9-41.3,58.6-47.9,93.4l-2.4,13.8h-38.3l-12,62.3h38.3l-43.7,231h82.6l43.7-231h56.9
	L2183.7,282.8z M2382.4,283.4c0,0-51.6,130.1-74.8,201.1h-1.2c-1.6-22.9-20.4-201.1-20.4-201.1h-86.8l49.7,268.7
	c1.2,6,0.6,9.6-1.8,13.8c-9.6,18.6-25.7,36.5-44.9,49.7c-15.6,11.4-32.9,18.6-46.7,23.3l22.7,70c16.8-3.6,51.5-17.4,80.8-44.9
	c37.7-35.3,72.4-89.8,108.3-164l101.2-216.7L2382.4,283.4L2382.4,283.4z"/>
</svg>
